<svg xmlns="http://www.w3.org/2000/svg" viewBox="0 0 512 512" style="enable-background:new 0 0 512 512;"
     xml:space="preserve">
<style type="text/css">
	.st0{fill:#FFFFFF;}
	.st1{opacity:0.8;fill:#FFFFFF;}
	.st2{opacity:0.6;fill:#FFFFFF;}
	.st3{fill:#FFFFFF;stroke:#FFFFFF;stroke-width:2;stroke-miterlimit:10;}
</style>
    <g>
	<path class="st0" d="M397.8,114.8h-72.1c-6.1,0-11.1-5-11.1-11.1V31.6c0-6.1,5-11.1,11.1-11.1h72.1c6.1,0,11.1,5,11.1,11.1v72.1
		C408.9,109.9,403.9,114.8,397.8,114.8z"/>
        <path class="st0" d="M256,114.8h-72.1c-6.1,0-11.1-5-11.1-11.1V31.6c0-6.1,5-11.1,11.1-11.1H256c6.1,0,11.1,5,11.1,11.1v72.1
		C267.1,109.9,262.1,114.8,256,114.8z"/>
        <path class="st0" d="M114.2,114.8H42.1c-6.1,0-11.1-5-11.1-11.1V31.6c0-6.1,5-11.1,11.1-11.1h72.1c6.1,0,11.1,5,11.1,11.1v72.1
		C125.3,109.9,120.3,114.8,114.2,114.8z"/>
        <path class="st1" d="M397.8,256h-72.1c-6.1,0-11.1-5-11.1-11.1v-72.1c0-6.1,5-11.1,11.1-11.1h72.1c6.1,0,11.1,5,11.1,11.1v72.1
		C408.9,251.1,403.9,256,397.8,256z"/>
        <path class="st1" d="M256,256h-72.1c-6.1,0-11.1-5-11.1-11.1v-72.1c0-6.1,5-11.1,11.1-11.1H256c6.1,0,11.1,5,11.1,11.1v72.1
		C267.1,251.1,262.1,256,256,256z"/>
        <path class="st1" d="M114.2,256H42.1c-6.1,0-11.1-5-11.1-11.1v-72.1c0-6.1,5-11.1,11.1-11.1h72.1c6.1,0,11.1,5,11.1,11.1v72.1
		C125.3,251.1,120.3,256,114.2,256z"/>
        <path class="st2" d="M397.8,397.2h-72.1c-6.1,0-11.1-5-11.1-11.1V314c0-6.1,5-11.1,11.1-11.1h72.1c6.1,0,11.1,5,11.1,11.1v72.1
		C408.9,392.3,403.9,397.2,397.8,397.2z"/>
        <path class="st2" d="M256,397.2h-72.1c-6.1,0-11.1-5-11.1-11.1V314c0-6.1,5-11.1,11.1-11.1H256c6.1,0,11.1,5,11.1,11.1v72.1
		C267.1,392.3,262.1,397.2,256,397.2z"/>
        <path class="st2" d="M114.2,397.2H42.1c-6.1,0-11.1-5-11.1-11.1V314c0-6.1,5-11.1,11.1-11.1h72.1c6.1,0,11.1,5,11.1,11.1v72.1
		C125.3,392.3,120.3,397.2,114.2,397.2z"/>
        <path class="st3" d="M482.4,163.8h-34.5v-14c0-8.6-7-15.6-15.6-15.6h-14v-34.5c0-5.7-4.7-10.4-10.4-10.4s-10.4,4.7-10.4,10.4v34.5h-28
		v-34.5c0-5.7-4.7-10.4-10.4-10.4c-5.7,0-10.4,4.7-10.4,10.4v34.5h-14c-8.6,0-15.6,7-15.6,15.6v14h-34.5c-5.7,0-10.4,4.7-10.4,10.4
		c0,5.7,4.7,10.4,10.4,10.4h34.5v28h-34.5c-5.7,0-10.4,4.7-10.4,10.4s4.7,10.4,10.4,10.4h34.5v14c0,8.6,7,15.6,15.6,15.6h14v34.5
		c0,5.7,4.7,10.4,10.4,10.4c5.7,0,10.4-4.7,10.4-10.4v-34.5h28v34.5c0,5.7,4.7,10.4,10.4,10.4s10.4-4.7,10.4-10.4v-34.5h14
		c8.6,0,15.6-7,15.6-15.6v-14h34.5c5.7,0,10.4-4.7,10.4-10.4s-4.7-10.4-10.4-10.4h-34.5v-28h34.5c5.7,0,10.4-4.7,10.4-10.4
		C492.8,168.5,488.1,163.8,482.4,163.8z M404.8,247.4c0,2.9-2.3,5.2-5.2,5.2h-85.3c-2.9,0-5.2-2.3-5.2-5.2v-85.3c0-2.9,2.3-5.2,5.2-5.2
		h85.3c2.9,0,5.2,2.3,5.2,5.2V247.4z"/>
        <path class="st0" d="M114.2,491.5H42.1c-6.1,0-11.1-5-11.1-11.1v-72.1c0-6.1,5-11.1,11.1-11.1h72.1c6.1,0,11.1,5,11.1,11.1v72.1
		C125.3,486.6,120.3,491.5,114.2,491.5z"/>
        <path class="st0" d="M256,491.5h-72.1c-6.1,0-11.1-5-11.1-11.1v-72.1c0-6.1,5-11.1,11.1-11.1H256c6.1,0,11.1,5,11.1,11.1v72.1
		C267.1,486.6,262.1,491.5,256,491.5z"/>
        <path class="st0" d="M397.8,491.5h-72.1c-6.1,0-11.1-5-11.1-11.1v-72.1c0-6.1,5-11.1,11.1-11.1h72.1c6.1,0,11.1,5,11.1,11.1v72.1
		C408.9,486.6,403.9,491.5,397.8,491.5z"/>
        <path class="st3" d="M122.2,220.7l0,63.1l31.6,0l0-31.6c11.2,0,18.5,10.8,15.8,21.3c-1.7,6.6-7.6,10.3-15.8,10.3
		c-3.7,0-7,0-10.5,0c-0.9,21.1-1.8,42.1-2.7,63.2c17.2,0,34.3,0,51.5,0c0-9.4,0-18.8,0-31.6l-12,0c-1.6,0-3-0.9-3.7-2.2c0,0,0,0,0,0
		c-3.1-6.3-6.8-12.3-11.1-17.9c-3.9-5.1-8.3-9.9-13.2-14c-0.1-0.1-0.2-0.2-0.3-0.3c0,0,0,0,0,0c0,0,0,0,0,0c0,0,0.1-0.1,0.1-0.1
		c0,0,0.1-0.1,0.1-0.1c8.5-7.1,15.4-16,20.2-26c4.9-10.1,7.8-21.2,7.8-33.7c0-0.1,0-0.2,0-0.2c0-0.1,0-0.2,0-0.2c0-0.1,0-0.3,0-0.4
		c0-0.1,0-0.2,0-0.4c0-0.1,0-0.2,0-0.3c0-0.1,0-0.3,0-0.4c0,0,0,0,0,0c0-0.1,0-0.2,0-0.3c0-0.1,0-0.2,0-0.3c0-0.1,0-0.2,0-0.3
		c0-0.1,0-0.2,0-0.3c0-0.1,0-0.2,0-0.3c0-0.1,0-0.2,0-0.2c0-0.1,0-0.1,0-0.2c0-0.2-0.1-0.3-0.1-0.5c0,0,0-0.1,0-0.1
		c0-0.1-0.1-0.3-0.1-0.4c0,0,0-0.1,0-0.1c0-0.1-0.1-0.2-0.1-0.4c0-0.1,0-0.1-0.1-0.2c0-0.1-0.1-0.2-0.1-0.2c0-0.1-0.1-0.2-0.1-0.3
		c0-0.1-0.1-0.1-0.1-0.2c0-0.1-0.1-0.2-0.1-0.2c0-0.1-0.1-0.1-0.1-0.2c0-0.1-0.1-0.1-0.1-0.2c-0.2-0.3-0.4-0.5-0.6-0.8
		c0,0-0.1-0.1-0.1-0.1c-0.1-0.1-0.2-0.2-0.3-0.3c0,0-0.1-0.1-0.1-0.1c-0.1-0.1-0.2-0.2-0.3-0.3c0,0-0.1-0.1-0.1-0.1
		c-0.1-0.1-0.2-0.1-0.3-0.2c0,0-0.1-0.1-0.1-0.1c-0.1-0.1-0.2-0.1-0.3-0.2c0,0-0.1,0-0.1-0.1c-0.1-0.1-0.2-0.1-0.3-0.1
		c0,0-0.1,0-0.1-0.1c-0.1,0-0.2-0.1-0.3-0.1c0,0-0.1,0-0.1,0c-0.1,0-0.2-0.1-0.3-0.1c0,0-0.1,0-0.1,0c-0.1,0-0.2,0-0.3-0.1
		c0,0,0,0-0.1,0c-0.1,0-0.3,0-0.4,0c0,0,0,0,0,0c-0.1,0-0.3,0-0.4,0c0,0,0,0,0,0c-0.1,0-0.3,0-0.4,0c0,0,0,0,0,0
		c-0.1,0-0.2,0-0.3,0c0,0-0.1,0-0.1,0c-0.1,0-0.2,0-0.3,0c0,0-0.1,0-0.1,0c-0.1,0-0.2,0-0.3,0.1c0,0-0.1,0-0.1,0
		c-0.1,0-0.2,0.1-0.3,0.1c0,0-0.1,0-0.1,0.1c-0.1,0-0.2,0.1-0.3,0.1c0,0-0.1,0-0.1,0.1c-0.1,0-0.2,0.1-0.3,0.2c0,0-0.1,0-0.1,0.1
		c-0.1,0.1-0.2,0.1-0.3,0.2c0,0-0.1,0.1-0.1,0.1c-0.1,0.1-0.2,0.1-0.3,0.2c0,0-0.1,0.1-0.1,0.1c-0.1,0.1-0.2,0.2-0.3,0.3
		c0,0-0.1,0.1-0.1,0.1c-0.1,0.1-0.2,0.2-0.2,0.3c0,0-0.1,0.1-0.1,0.1c-0.2,0.2-0.4,0.5-0.5,0.7c0,0,0,0,0,0.1c0,0.1-0.1,0.2-0.1,0.2
		c0,0.1-0.1,0.1-0.1,0.2c0,0.1-0.1,0.1-0.1,0.2c0,0.1-0.1,0.2-0.1,0.2c0,0.1-0.1,0.1-0.1,0.2c0,0.1-0.1,0.2-0.1,0.3
		c0,0.1,0,0.1-0.1,0.2c0,0.1-0.1,0.3-0.1,0.4c0,0,0,0.1,0,0.1c0,0.1-0.1,0.3-0.1,0.4c0,0,0,0.1,0,0.1c0,0.2-0.1,0.3-0.1,0.5
		c0,0.1,0,0.1,0,0.2c0,0.1,0,0.2,0,0.3c0,0.1,0,0.1,0,0.2c0,0.1,0,0.2,0,0.3c0,0.1,0,0.2,0,0.2c0,0.1,0,0.2,0,0.3c0,0.1,0,0.2,0,0.3
		c0,0.1,0,0.2,0,0.3c0,0.1,0,0.2,0,0.3c0,0.1,0,0.2,0,0.4c0,0.1,0,0.2,0,0.3c0,0.1,0,0.2,0,0.3c0,0.1,0,0.3,0,0.4c0,0.1,0,0.1,0,0.2
		c0,0.1,0,0.3,0,0.4c0,0,0,0,0,0c0,0.2,0,0.4,0,0.6c0,21.1,0,42.1,0,63.2c21.1,0,42.1,0,63.2,0c0-21.1,0-42.1,0-63.2
		c0-17.8-7.2-33.9-18.9-45.5C156.1,220.7,139.2,220.7,122.2,220.7z"/>
</g>
</svg>